<?xml version="1.0" encoding="UTF-8" standalone="no"?>
<!-- Created with Inkscape (http://www.inkscape.org/) -->

<svg
   width="210mm"
   height="297mm"
   viewBox="0 0 210 297"
   version="1.1"
   id="svg1"
   xml:space="preserve"
   xmlns="http://www.w3.org/2000/svg"
   xmlns:svg="http://www.w3.org/2000/svg"><defs
     id="defs1" /><rect
     style="mix-blend-mode:normal;fill:#678e34;fill-opacity:1;stroke-width:0.311466"
     id="rect8"
     width="210.82576"
     height="296.67746"
     x="-0.2716774"
     y="-4.4763183e-07" /><g
     id="layer1"><g
       id="g1"
       transform="translate(-152.72357,21.388044)"><path
         style="fill:#e0fac4"
         d="m 184.03355,117.25165 c 0,-46.202865 0.0305,-65.104037 0.0678,-42.002605 0.0373,23.101431 0.0373,60.903785 0,84.005215 -0.0373,23.10143 -0.0678,4.20026 -0.0678,-42.00261 z m 61.80946,3.63412 c -0.34862,-0.17975 -0.73174,-0.59472 -0.85137,-0.92214 -0.20367,-0.55741 -0.14647,-0.5955 0.89843,-0.59822 0.61378,-0.002 1.56244,-0.0767 2.10814,-0.16691 0.88742,-0.14668 0.99219,-0.10447 0.99219,0.39978 0,1.31774 -1.72233,2.02229 -3.14739,1.28749 z M 216.8137,106.46988 c -0.42014,-1.33687 -0.66804,-1.64795 -1.48119,-1.85866 -1.13379,-0.29379 -1.10876,-0.83907 0.0558,-1.21547 0.71013,-0.22952 0.99495,-0.51249 1.22156,-1.21361 0.41247,-1.27617 0.81574,-1.28907 1.15292,-0.0369 0.25218,0.9365 0.41623,1.10209 1.33772,1.35022 1.03122,0.27768 1.37226,0.70901 0.71957,0.91009 -0.1819,0.056 -0.65388,0.17256 -1.04885,0.25894 -0.56422,0.12339 -0.77904,0.38329 -1.00238,1.21272 -0.29965,1.11281 -0.7114,1.36829 -0.95516,0.59265 z m 12.57378,-1.97981 -1.09438,-1.38451 1.02209,-0.89206 c 3.14824,-2.747724 3.80323,-3.247464 4.05357,-3.092744 0.58395,0.3609 0.21098,0.925984 -1.57628,2.388194 -1.01864,0.83338 -1.85208,1.61665 -1.85208,1.7406 0,0.12395 0.37813,0.65602 0.84028,1.18238 0.68263,0.77748 0.7695,1.00182 0.46302,1.19578 -0.60312,0.3817 -0.70423,0.31973 -1.85622,-1.13764 z m 9.32679,-0.40144 c -0.7015,-1.78364 -1.39227,-4.306764 -1.24453,-4.545804 0.22504,-0.36413 10.08763,-3.517739 10.65906,-3.40829 0.29874,0.05722 0.62903,0.600858 0.92474,1.522043 0.25301,0.788167 0.41081,1.482237 0.35067,1.542377 -0.32225,0.32224 -1.16834,-0.32824 -1.39137,-1.0697 -0.14122,-0.469508 -0.366,-0.839522 -0.4995,-0.822257 -0.83661,0.108198 -8.84169,2.806031 -8.84169,2.979781 0,0.1173 0.21956,0.857 0.48792,1.64377 0.8684,2.546 0.90877,2.88569 0.34297,2.88569 -0.30199,0 -0.61616,-0.28999 -0.78827,-0.72761 z m 8.42923,-0.7276 c 0.002,-0.3746 0.0659,-0.42994 0.21846,-0.18948 0.11882,0.18726 0.41382,0.26361 0.65741,0.17013 0.24302,-0.0933 0.44186,-0.0457 0.44186,0.10576 0,0.15142 0.32743,0.32778 0.72761,0.39191 0.40018,0.0641 0.10303,0.1018 -0.66033,0.0837 -1.20164,-0.0285 -1.38754,-0.1039 -1.38501,-0.56204 z m -25.31716,-5.478894 c -0.14297,-0.188071 -0.40325,-0.843298 -0.57838,-1.456063 -0.27493,-0.961938 -0.45292,-1.151472 -1.3031,-1.387587 -0.54157,-0.150408 -1.1335,-0.274133 -1.3154,-0.274944 -0.1819,-8.12e-4 -0.33073,-0.237333 -0.33073,-0.525602 0,-0.359315 0.2288,-0.570912 0.72761,-0.672915 1.50979,-0.30874 2.03971,-0.75902 2.33734,-1.986089 0.40456,-1.667934 1.02843,-1.701408 1.48645,-0.07976 0.37046,1.311649 0.88967,1.75739 2.4115,2.070259 1.16223,0.238942 0.79368,0.948989 -0.74519,1.435688 -1.22887,0.388655 -1.34206,0.497731 -1.59217,1.534318 -0.32485,1.346345 -0.72402,1.834505 -1.09793,1.342695 z"
         id="path8" /><path
         style="fill:#d4a935"
         d="m 234.58326,128.81911 c 0,-0.14552 0.47625,-0.26458 1.05834,-0.26458 0.58208,0 1.05833,0.11906 1.05833,0.26458 0,0.14552 -0.47625,0.26459 -1.05833,0.26459 -0.58209,0 -1.05834,-0.11907 -1.05834,-0.26459 z m 4.23334,-0.22996 c 0,-0.269 1.82796,-0.60992 2.16231,-0.40328 0.12516,0.0773 0.15907,0.25148 0.0753,0.38694 -0.19241,0.31133 -2.23766,0.32626 -2.23766,0.0163 z m 4.23333,-0.26834 c 0,-0.26759 0.91001,-0.5511 1.78594,-0.55642 0.35438,-0.002 0.59531,0.15701 0.59531,0.39327 0,0.29398 -0.30868,0.39687 -1.19062,0.39687 -0.65485,0 -1.19063,-0.10518 -1.19063,-0.23372 z m 4.39226,-0.25235 c -0.19808,-0.3205 0.44964,-0.57226 1.47226,-0.57226 1.12648,0 0.81673,0.61667 -0.36771,0.73207 -0.52176,0.0508 -1.01881,-0.0211 -1.10455,-0.15981 z m 4.25799,-0.21229 c -0.36587,-0.36587 0.1673,-0.62456 1.28724,-0.62456 1.35333,0 1.5665,0.38473 0.34819,0.62839 -1.04699,0.2094 -1.42308,0.20852 -1.63543,-0.004 z m 4.44205,-0.79616 c 0.1127,-0.26942 0.26302,-0.75775 0.33403,-1.08517 0.21222,-0.97853 0.63499,-0.67316 0.54641,0.39468 -0.06,0.72375 -0.21701,1.01558 -0.58374,1.08517 -0.39841,0.0756 -0.45946,-0.006 -0.2967,-0.39468 z m -22.44091,-0.53395 c -0.097,-0.097 -0.17639,-0.57327 -0.17639,-1.05834 0,-0.60756 0.12347,-0.88194 0.39688,-0.88194 0.28663,0 0.39687,0.29398 0.39687,1.05833 0,0.9931 -0.20844,1.29087 -0.61736,0.88195 z m 22.57778,-3.77072 c 0,-0.42466 -0.0723,-0.96045 -0.1606,-1.19063 -0.10539,-0.27463 -0.0144,-0.41851 0.26458,-0.41851 0.32753,0 0.42518,0.27345 0.42518,1.19062 0,0.65485 -0.11906,1.19063 -0.26458,1.19063 -0.14552,0 -0.26458,-0.34745 -0.26458,-0.77211 z m -25.47775,-1.37224 c -0.31514,-0.18338 -0.42709,-0.4696 -0.33317,-0.85185 0.0778,-0.31662 0.0729,-0.42611 -0.011,-0.2433 -0.0838,0.18281 -0.26134,0.26508 -0.39443,0.18282 -0.4223,-0.26099 -0.26163,-1.3449 0.30639,-2.06702 0.46853,-0.59564 0.75146,-0.69714 1.94336,-0.69714 0.99729,0 1.51092,0.13201 1.80159,0.46302 0.56242,0.64049 0.81166,1.57428 0.47562,1.78196 -0.15381,0.0951 -0.21705,0.27414 -0.14053,0.39795 0.0765,0.12382 -0.17572,0.47278 -0.56053,0.77547 -0.75679,0.59529 -2.28784,0.72328 -3.08729,0.25809 z m 1.00192,-2.87971 c 0.0927,-0.14998 -0.0135,-0.19433 -0.24897,-0.10398 -0.45837,0.17589 -0.54224,0.36554 -0.16165,0.36554 0.13693,0 0.32171,-0.1177 0.41062,-0.26156 z m 0.78432,0.0153 c 0.0837,-0.13547 0.0511,-0.30883 -0.0726,-0.38524 -0.12364,-0.0764 -0.2248,0.0344 -0.2248,0.2463 0,0.44613 0.0834,0.48511 0.29738,0.13894 z m 13.70852,1.91503 c 0.25743,-0.0671 0.61462,-0.0627 0.79375,0.01 0.17913,0.0725 -0.0315,0.12736 -0.46805,0.12197 -0.43657,-0.005 -0.58313,-0.0647 -0.3257,-0.13177 z m 9.63066,-2.37152 c -0.16809,-1.03582 -0.0278,-1.51654 0.37061,-1.27029 0.31133,0.19241 0.32626,2.23766 0.0163,2.23766 -0.12648,0 -0.30061,-0.43532 -0.38695,-0.96737 z m -0.26503,-3.44235 c -0.097,-0.097 -0.17639,-0.64272 -0.17639,-1.21268 0,-1.41986 0.63512,-1.17605 0.74282,0.28515 0.0751,1.01958 -0.13321,1.36075 -0.56643,0.92753 z m -22.75417,-0.79375 c -0.28097,-0.28098 -0.20402,-2.20486 0.0882,-2.20486 0.14552,0 0.26458,0.53578 0.26458,1.19062 0,1.21137 -0.0402,1.32685 -0.35278,1.01424 z m 22.46008,-3.59393 c -0.28767,-0.94112 -0.3686,-2.05052 -0.14958,-2.05052 0.36504,0 0.79644,0.92214 0.79644,1.7024 0,0.69426 -0.46463,0.94431 -0.64686,0.34812 z m -21.84272,-0.4284 c 0,-0.267 1.82679,-0.61064 2.158,-0.40595 0.56035,0.34632 0.11981,0.63592 -0.96737,0.63592 -0.65485,0 -1.19063,-0.10349 -1.19063,-0.22997 z m 4.23333,-0.25568 c 0,-0.33876 0.66631,-0.57269 1.63119,-0.57269 0.51695,0 0.7562,0.11545 0.6854,0.33073 -0.12694,0.38603 -2.31659,0.61472 -2.31659,0.24196 z m 4.49792,-0.44039 c 0,-0.29399 0.30868,-0.39688 1.19063,-0.39688 1.25784,0 1.59801,0.35827 0.59531,0.62699 -1.05019,0.28144 -1.78594,0.18664 -1.78594,-0.23011 z m 4.42504,-0.0288 c -0.43596,-0.43597 -0.12538,-0.63268 0.99892,-0.63268 0.65484,0 1.19062,0.11906 1.19062,0.26458 0,0.14552 -0.20835,0.26621 -0.46302,0.2682 -0.25466,0.002 -0.70417,0.0684 -0.99891,0.14761 -0.29474,0.0792 -0.62217,0.0577 -0.72761,-0.0477 z m 4.04163,-0.63268 c 0,-0.14552 0.53578,-0.26459 1.19062,-0.26459 0.65485,0 1.19063,0.11907 1.19063,0.26459 0,0.14552 -0.53578,0.26458 -1.19063,0.26458 -0.65484,0 -1.19062,-0.11906 -1.19062,-0.26458 z m -6.47257,-3.50573 c 0.47279,-1.58415 1.99135,-2.8415 3.43399,-2.84328 0.43883,-5.5e-4 1.21274,0.22083 1.71979,0.49195 0.94537,0.50549 2.05845,2.03099 1.72473,2.36379 -0.31007,0.30921 -2.84292,0.12704 -3.05733,-0.21989 -0.10993,-0.17786 -0.34555,-0.23335 -0.52361,-0.1233 -0.18161,0.11224 -0.42514,0.04 -0.5547,-0.16454 -0.17198,-0.27152 -0.23198,-0.21474 -0.235,0.22238 -0.003,0.40294 0.11535,0.54119 0.37675,0.44088 0.20945,-0.0804 0.5964,-0.0207 0.8599,0.13255 0.36378,0.21161 -0.0506,0.28062 -1.72155,0.28672 -2.15994,0.008 -2.19736,-0.003 -2.02297,-0.58726 z m 5.5752,-1.43152 c -0.3958,-0.34045 -0.86183,-0.61538 -1.03562,-0.61096 -0.17378,0.004 -0.0779,0.14554 0.2132,0.31359 0.79916,0.46145 1.1869,0.91446 0.97958,1.1445 -0.10221,0.11341 -0.0175,0.10848 0.18832,-0.011 0.29782,-0.17286 0.22733,-0.34345 -0.34548,-0.83617 z m -3.07138,-0.19382 c 0,-0.0572 -0.18478,-0.17489 -0.41062,-0.26155 -0.23546,-0.0904 -0.34166,-0.046 -0.24897,0.10398 0.15538,0.25141 0.65959,0.37186 0.65959,0.15757 z"
         id="path7" /><path
         style="fill:#da6e16"
         d="m 227.90578,130.66302 c -0.25288,-0.15349 -0.56727,-0.48234 -0.69865,-0.73077 -0.13138,-0.24843 -0.57367,-4.88051 -0.98288,-10.29351 -0.72565,-9.599 -0.73188,-9.85522 -0.25253,-10.3849 0.69874,-0.7721 0.9674,-0.69112 2.0655,0.62256 0.93218,1.11519 0.98605,1.28914 1.24478,4.01983 0.25779,2.72072 0.24476,2.88154 -0.27855,3.43858 -0.60023,0.63892 -0.93303,2.33278 -0.66677,3.39367 0.0928,0.36992 0.50892,1.06172 0.9246,1.53733 0.69597,0.79632 0.77114,1.09237 0.94986,3.741 0.10674,1.58194 0.29866,3.24093 0.42649,3.68664 0.12783,0.44572 0.20469,0.83691 0.1708,0.86932 -0.25718,0.2459 -2.5332,0.32451 -2.90265,0.10025 z m 4.70393,-0.61266 c -0.37721,-0.27583 -0.53371,-0.88808 -0.69323,-2.71198 -0.36847,-4.21319 -0.39378,-4.07538 0.74856,-4.07652 1.23109,-0.001 2.55111,-0.78073 3.24257,-1.91482 1.51045,-2.47733 -0.60946,-5.64985 -3.63266,-5.43641 -1.31614,0.0929 -1.27537,0.19696 -1.54097,-3.93208 -0.1608,-2.49979 -0.13433,-2.72375 0.38307,-3.24115 0.32614,-0.32614 0.91111,-0.56212 1.41569,-0.57109 0.47295,-0.008 5.86052,-0.40624 11.9724,-0.88406 6.11187,-0.47783 11.36415,-0.77773 11.67173,-0.66644 0.30757,0.11129 0.63792,0.40742 0.7341,0.65807 0.21626,0.56356 1.4794,16.57495 1.48252,18.79224 0.004,2.65876 0.64081,2.47481 -11.99256,3.4628 -12.51914,0.97904 -13.13363,1.00228 -13.79122,0.52144 z m 4.09022,-1.23126 c 0,-0.14552 -0.47625,-0.26458 -1.05833,-0.26458 -0.58209,0 -1.05834,0.11906 -1.05834,0.26458 0,0.14552 0.47625,0.26459 1.05834,0.26459 0.58208,0 1.05833,-0.11907 1.05833,-0.26459 z m 4.35433,-0.2463 c 0.0837,-0.13546 0.0498,-0.30959 -0.0753,-0.38694 -0.33435,-0.20664 -2.16231,0.13428 -2.16231,0.40328 0,0.30992 2.04524,0.29499 2.23766,-0.0163 z m 4.37692,-0.41515 c 0,-0.41676 -0.73575,-0.51156 -1.78594,-0.23012 -1.0027,0.26872 -0.66253,0.62699 0.59532,0.62699 0.88194,0 1.19062,-0.10289 1.19062,-0.39687 z m 4.17082,-0.34164 c 0.0676,-0.20268 -0.18426,-0.31982 -0.68755,-0.31982 -1.02262,0 -1.67034,0.25176 -1.47226,0.57226 0.21676,0.35073 2.02938,0.13887 2.15981,-0.25244 z m 3.73361,0.044 c 1.21831,-0.24366 1.00514,-0.62839 -0.34819,-0.62839 -1.11994,0 -1.65311,0.25869 -1.28724,0.62456 0.21235,0.21235 0.58844,0.21323 1.63543,0.004 z m 3.68706,-1.49048 c 0.0886,-1.06784 -0.33419,-1.37321 -0.54641,-0.39468 -0.071,0.32742 -0.22133,0.81575 -0.33403,1.08517 -0.16276,0.38907 -0.10171,0.47027 0.2967,0.39468 0.36673,-0.0696 0.52371,-0.36142 0.58374,-1.08517 z m -22.70399,-0.72543 c 0,-0.76435 -0.11024,-1.05833 -0.39687,-1.05833 -0.27341,0 -0.39688,0.27438 -0.39688,0.88194 0,0.48507 0.0794,0.96132 0.17639,1.05834 0.40892,0.40892 0.61736,0.11115 0.61736,-0.88195 z m 14.01498,-1.92598 c 1.1478,-0.5808 1.86002,-1.95041 1.86002,-3.57688 v -1.45586 l -2.84427,0.17493 c -3.99654,0.2458 -4.4147,0.38596 -4.50387,1.50963 -0.19904,2.50822 3.13197,4.5404 5.48812,3.34818 z m 8.4746,-1.38131 c 0,-0.91717 -0.0976,-1.19062 -0.42518,-1.19062 -0.27901,0 -0.36997,0.14388 -0.26458,0.41851 0.0883,0.23018 0.1606,0.76597 0.1606,1.19063 0,0.42466 0.11906,0.77211 0.26458,0.77211 0.14552,0 0.26458,-0.53578 0.26458,-1.19063 z m -0.26458,-4.35001 c 0,-0.99988 -0.33795,-1.59739 -0.63325,-1.11959 -0.20663,0.33434 0.13429,2.16231 0.40329,2.16231 0.12648,0 0.22996,-0.46922 0.22996,-1.04272 z m -15.66333,-0.5977 c 0.17462,-0.17462 0.32128,-0.62111 0.32591,-0.99218 0.005,-0.37108 0.16658,-0.88305 0.3599,-1.13771 0.68515,-0.90257 1.59298,-0.4258 1.98296,1.04142 0.22544,0.84815 1.25114,1.18526 1.5149,0.4979 0.46708,-1.21718 -1.33233,-3.58984 -2.72251,-3.58984 -1.42285,0 -2.73116,1.55487 -2.73116,3.24587 0,0.57456 0.4295,1.25204 0.79375,1.25204 0.0873,0 0.30162,-0.14287 0.47625,-0.3175 z m 7.9375,-0.79375 c 0.17462,-0.17462 0.3175,-0.64237 0.3175,-1.03943 0,-0.39707 0.19243,-0.91437 0.42763,-1.14956 0.36915,-0.36916 0.50257,-0.37786 0.97577,-0.0637 0.30149,0.20018 0.68281,0.76387 0.84738,1.25265 0.33764,1.00282 0.76143,1.25282 1.32743,0.78309 0.7758,-0.64386 -0.26887,-2.92015 -1.63843,-3.57004 -0.74512,-0.35359 -0.97917,-0.3597 -1.73141,-0.0453 -1.15511,0.48283 -1.55025,1.00524 -1.72051,2.27465 -0.22321,1.66414 0.34597,2.40624 1.19464,1.55757 z m 7.41032,-2.90308 c -0.1077,-1.4612 -0.74282,-1.70501 -0.74282,-0.28515 0,0.56996 0.0794,1.11566 0.17639,1.21268 0.43322,0.43322 0.64157,0.0921 0.56643,-0.92753 z m -22.96782,-0.88046 c 0,-0.65484 -0.11906,-1.19062 -0.26459,-1.19062 -0.29221,0 -0.36916,1.92388 -0.0882,2.20486 0.31262,0.31261 0.35278,0.19713 0.35278,-1.01424 z m 22.75416,-2.92781 c 0,-0.78026 -0.4314,-1.7024 -0.79644,-1.7024 -0.21902,0 -0.13809,1.1094 0.14958,2.05052 0.18223,0.59619 0.64686,0.34614 0.64686,-0.34812 z m -20.10833,-0.0993 c 0,-0.42472 -0.40865,-0.53107 -1.41388,-0.36795 -1.35235,0.21946 -1.20851,0.61692 0.22326,0.61692 0.65484,0 1.19062,-0.11204 1.19062,-0.24897 z m 4.16867,-0.47864 c 0.0708,-0.21528 -0.16845,-0.33073 -0.6854,-0.33073 -0.96488,0 -1.63119,0.23393 -1.63119,0.57269 0,0.37276 2.18965,0.14407 2.31659,-0.24196 z m 3.96727,0.0317 c 1.0027,-0.26872 0.66253,-0.62699 -0.59531,-0.62699 -0.88195,0 -1.19063,0.10289 -1.19063,0.39688 0,0.41675 0.73575,0.51155 1.78594,0.23011 z m 4.36562,-0.35879 c 0.25467,-0.002 0.46302,-0.12268 0.46302,-0.2682 0,-0.14552 -0.53578,-0.26458 -1.19062,-0.26458 -1.1243,0 -1.43488,0.19671 -0.99892,0.63268 0.10544,0.10544 0.43287,0.12691 0.72761,0.0477 0.29474,-0.0792 0.74425,-0.14563 0.99891,-0.14761 z m 4.69636,-0.53278 c 0,-0.14552 -0.53578,-0.26459 -1.19063,-0.26459 -0.65484,0 -1.19062,0.11907 -1.19062,0.26459 0,0.14552 0.53578,0.26458 1.19062,0.26458 0.65485,0 1.19063,-0.11906 1.19063,-0.26458 z m -18.98328,12.54623 c 0.25498,-0.30285 0.39589,-0.61835 0.31313,-0.70111 -0.0828,-0.0828 -0.0235,-0.22895 0.13171,-0.32487 0.54214,-0.33506 0.27708,0.57289 -0.31312,1.07259 -0.59484,0.50362 -0.59494,0.50359 -0.13172,-0.0466 z m -4.12531,-0.22789 c -0.0991,-0.25829 -0.0608,-0.37291 0.0929,-0.27793 0.14385,0.0889 0.26155,0.0157 0.26155,-0.16265 0,-0.17836 0.0704,-0.25385 0.15654,-0.16775 0.0861,0.0861 0.0443,0.3571 -0.0929,0.60223 -0.23157,0.4138 -0.26148,0.41424 -0.41809,0.006 z m 1.14817,-2.10358 c 0,-0.0572 0.18478,-0.17489 0.41062,-0.26155 0.23546,-0.0904 0.34166,-0.046 0.24897,0.10398 -0.15538,0.25141 -0.65959,0.37186 -0.65959,0.15757 z m 1.14653,-0.28125 c 0,-0.21188 0.10116,-0.32272 0.2248,-0.2463 0.12364,0.0764 0.1563,0.24977 0.0726,0.38524 -0.21395,0.34617 -0.29738,0.30719 -0.29738,-0.13894 z m -2.20486,0.0208 c 0,-0.0549 0.20836,-0.2633 0.46302,-0.46302 0.41964,-0.32911 0.429,-0.31975 0.0999,0.0999 -0.34565,0.44073 -0.56292,0.58089 -0.56292,0.36313 z m 3.935,-0.36313 c -0.32911,-0.41964 -0.31975,-0.429 0.0999,-0.0999 0.44073,0.34564 0.58089,0.56291 0.36312,0.56291 -0.0549,0 -0.2633,-0.20836 -0.46302,-0.46302 z m -2.14907,-0.51745 c 0.32743,-0.0631 0.86321,-0.0631 1.19063,0 0.32742,0.0631 0.0595,0.11466 -0.59531,0.11466 -0.65485,0 -0.92274,-0.0516 -0.59532,-0.11466 z m 12.45196,-11.90027 c 0.19099,-0.0764 0.4192,-0.067 0.50712,0.0209 0.0879,0.0879 -0.0684,0.15045 -0.34727,0.13897 -0.30822,-0.0127 -0.37092,-0.0754 -0.15985,-0.15986 z m 6.35,-0.52916 c 0.19099,-0.0764 0.4192,-0.067 0.50712,0.0209 0.0879,0.0879 -0.0684,0.15046 -0.34727,0.13897 -0.30822,-0.0127 -0.37092,-0.0754 -0.15985,-0.15985 z m -0.6906,-0.73438 c 0.20732,-0.23004 -0.18042,-0.68305 -0.97958,-1.1445 -0.29105,-0.16805 -0.38698,-0.30916 -0.2132,-0.31359 0.17379,-0.004 0.63982,0.27051 1.03562,0.61096 0.57281,0.49272 0.6433,0.66331 0.34548,0.83617 -0.20578,0.11944 -0.29053,0.12437 -0.18832,0.011 z m -4.94833,-1.20155 c 0.26339,-0.29104 0.53842,-0.52917 0.61118,-0.52917 0.0728,0 -0.0832,0.23813 -0.3466,0.52917 -0.26339,0.29104 -0.53842,0.52917 -0.61118,0.52917 -0.0728,0 0.0832,-0.23813 0.3466,-0.52917 z m 1.0602,0.003 c -0.0927,-0.14998 0.0135,-0.19434 0.24897,-0.10398 0.45837,0.17589 0.54223,0.36553 0.16165,0.36553 -0.13693,0 -0.32171,-0.1177 -0.41062,-0.26155 z m 0.0599,-0.82961 c 0.17948,-0.18082 0.39297,-0.26212 0.47443,-0.18065 0.0815,0.0815 -0.0654,0.2294 -0.32631,0.32876 -0.37709,0.14359 -0.40748,0.1132 -0.14812,-0.14811 z"
         id="path5" /><path
         style="fill:#4f1b01"
         d="m 230.46665,141.31149 c -0.44201,-0.32373 -0.50831,-0.67747 -0.47572,-2.53818 0.0208,-1.18912 0.16291,-2.28708 0.31573,-2.4399 0.15283,-0.15283 1.24508,-0.36291 2.42723,-0.46684 1.76421,-0.15512 2.34323,-0.32612 3.23121,-0.95427 1.26703,-0.89629 1.9631,-1.79112 2.2146,-2.84696 l 0.18074,-0.75876 -2.74848,0.18259 c -1.51167,0.10043 -3.80433,0.29579 -5.09481,0.43415 -2.07692,0.22267 -2.44148,0.19616 -3.175,-0.23093 -1.03276,-0.60132 -1.55386,-1.65114 -1.66967,-3.36374 -0.2461,-3.63931 -0.70783,-7.44588 -0.93819,-7.73453 -0.1421,-0.17805 -0.69288,-0.40194 -1.22396,-0.49752 -0.53109,-0.0956 -1.11043,-0.28859 -1.28744,-0.42889 -0.17701,-0.14031 -0.47116,-0.20532 -0.65368,-0.14449 -0.18251,0.0608 -0.98561,-0.0917 -1.78467,-0.33889 -1.14177,-0.35327 -1.4908,-0.59151 -1.63019,-1.11271 -0.0975,-0.36476 -0.10213,-0.77759 -0.0102,-0.9174 0.28207,-0.42885 1.84615,-0.60539 2.61471,-0.29515 0.40012,0.16152 1.02338,0.33201 1.38501,0.37887 0.36164,0.0469 0.92312,0.22734 1.24775,0.40108 0.99331,0.5316 1.46026,-0.0972 1.28157,-1.72578 -0.0812,-0.73997 -0.20546,-2.56268 -0.27614,-4.05047 -0.12849,-2.70429 -0.12829,-2.70535 0.6632,-3.60681 0.96318,-1.09699 0.98148,-1.42638 0.13027,-2.34438 -0.3638,-0.39234 -0.66146,-0.82487 -0.66146,-0.96117 0,-0.1363 -0.17859,-0.31636 -0.39687,-0.40012 -0.73083,-0.28044 -0.40751,-1.08925 0.80837,-2.02222 0.66289,-0.50864 1.40703,-1.12272 1.65365,-1.36462 0.24661,-0.24189 2.1748,-1.947922 4.28485,-3.791164 3.83149,-3.34701 5.82558,-4.897151 6.29965,-4.897151 0.13816,0 0.71202,0.564135 1.27525,1.253634 1.83706,2.248895 1.82323,2.240356 3.08261,1.90259 0.61405,-0.164686 1.23551,-0.372987 1.38103,-0.462892 0.14552,-0.08991 0.53248,-0.128851 0.8599,-0.08655 0.32742,0.0423 0.59531,-0.02467 0.59531,-0.148839 0,-0.124165 0.56555,-0.380778 1.25677,-0.57025 0.69123,-0.189472 1.4949,-0.443776 1.78594,-0.565119 1.77028,-0.738078 2.37133,-0.816689 2.70939,-0.35436 0.18333,0.250711 0.33227,0.581909 0.33099,0.735997 -0.004,0.455599 3.24748,10.304204 3.5208,10.665064 0.13777,0.1819 0.74193,0.33132 1.34257,0.33204 0.7394,8.9e-4 1.33622,0.19668 1.84805,0.60625 0.81695,0.65374 1.56838,2.4207 1.34047,3.1521 -0.21579,0.69253 0.40924,5.77925 0.7557,6.15014 0.32448,0.34736 0.79275,0.27559 3.31847,-0.50859 1.83627,-0.57013 2.47463,-0.46269 2.71923,0.45766 0.31463,1.18389 -0.24217,1.4975 -4.7888,2.69719 l -1.19062,0.31417 0.0379,1.43624 c 0.0208,0.78993 0.0804,3.06082 0.13229,5.04643 l 0.0944,3.61019 -0.83421,0.79933 c -0.90279,0.86505 -0.67463,0.82021 -6.93783,1.36324 -1.80077,0.15613 -3.37834,0.34828 -3.50573,0.42701 -0.42573,0.26311 -0.23896,0.97394 0.69444,2.64302 0.50932,0.91075 0.92604,1.84493 0.92604,2.07594 0,0.23102 0.11906,0.42003 0.26458,0.42003 0.14552,0 0.26458,0.12143 0.26458,0.26984 0,0.14842 0.30647,0.75531 0.68103,1.34866 0.55573,0.88034 0.78695,1.04727 1.25677,0.90734 1.9817,-0.59021 2.8247,-0.357 2.8247,0.78146 0,0.76238 -0.29047,0.98775 -2.34467,1.81921 -1.95318,0.79056 -2.35811,0.68479 -3.13789,-0.81956 -1.98209,-3.8239 -4.04244,-7.98381 -4.04244,-8.16182 0,-0.11663 -0.23947,-0.46697 -0.53216,-0.77852 -0.49118,-0.52284 -0.65927,-0.54671 -2.18281,-0.30995 -0.90786,0.14108 -1.77563,0.35334 -1.92839,0.47168 -0.15276,0.11835 -0.4297,0.80808 -0.61543,1.53273 -0.18572,0.72466 -0.62628,1.62897 -0.97902,2.00959 -0.35275,0.38061 -0.64135,0.80495 -0.64135,0.94298 0,0.13802 -0.10993,0.25095 -0.24429,0.25095 -0.13435,0 -0.60644,0.30474 -1.04909,0.6772 -0.44265,0.37247 -1.0471,0.69546 -1.34322,0.71777 -0.29612,0.0223 -0.5384,0.13428 -0.5384,0.24883 0,0.11455 -0.28312,0.20828 -0.62915,0.20828 -0.34603,0 -1.0604,0.18019 -1.5875,0.40043 -0.865,0.36142 -0.95835,0.49917 -0.95835,1.4142 0,0.64611 -0.17548,1.17258 -0.48386,1.45165 -0.59174,0.53553 -0.85457,0.54623 -1.51609,0.0617 z m 0.34178,-10.84477 c 0.0339,-0.0324 -0.043,-0.4236 -0.1708,-0.86932 -0.12783,-0.44571 -0.31975,-2.1047 -0.42649,-3.68664 -0.17872,-2.64863 -0.25389,-2.94468 -0.94986,-3.741 -0.41568,-0.47561 -0.83175,-1.16741 -0.92459,-1.53733 -0.26627,-1.06089 0.0665,-2.75475 0.66677,-3.39367 0.5233,-0.55704 0.53633,-0.71786 0.27854,-3.43858 -0.25873,-2.73069 -0.3126,-2.90464 -1.24478,-4.01983 -1.0981,-1.31368 -1.36676,-1.39466 -2.0655,-0.62256 -0.47934,0.52968 -0.47311,0.7859 0.25254,10.3849 0.4092,5.413 0.85149,10.04508 0.98287,10.29351 0.40528,0.76636 1.10016,1.01769 2.34905,0.84964 0.65485,-0.0881 1.21836,-0.18672 1.25225,-0.21912 z m 15.5925,-1.03385 c 12.63337,-0.98799 11.99631,-0.80404 11.99257,-3.4628 -0.003,-2.21729 -1.26627,-18.22868 -1.48252,-18.79224 -0.0962,-0.25065 -0.42654,-0.54678 -0.73411,-0.65807 -0.30758,-0.11129 -5.55985,0.18861 -11.67173,0.66644 -6.11187,0.47782 -11.49945,0.87565 -11.97239,0.88406 -0.50459,0.009 -1.08956,0.24495 -1.4157,0.57109 -0.5174,0.5174 -0.54387,0.74136 -0.38307,3.24115 0.2656,4.12904 0.22483,4.02501 1.54098,3.93208 3.0232,-0.21344 5.1431,2.95908 3.63265,5.43641 -0.69146,1.13409 -2.01148,1.9136 -3.24257,1.91482 -1.14234,0.001 -1.11703,-0.13667 -0.74856,4.07652 0.23901,2.73279 0.50668,3.07546 2.38663,3.05526 0.66341,-0.007 6.10743,-0.39625 12.09782,-0.86472 z m -1.69977,-6.00005 c -1.17154,-0.7143 -1.94511,-2.03119 -1.85562,-3.15893 0.0892,-1.12367 0.50733,-1.26383 4.50387,-1.50963 l 2.84427,-0.17493 v 1.45586 c 0,1.62647 -0.71221,2.99608 -1.86002,3.57688 -0.97753,0.49463 -2.6541,0.40729 -3.6325,-0.18925 z m 3.42983,-1.52279 c 0.52192,-0.60329 0.75915,-1.60309 0.40813,-1.72009 -0.1515,-0.0505 -0.97713,-0.009 -1.83472,0.092 -0.8576,0.10111 -1.79433,0.12238 -2.08163,0.0473 -0.41951,-0.10971 -0.48778,-0.0392 -0.34672,0.3583 0.0966,0.2722 0.41679,0.7628 0.71151,1.09022 0.68031,0.75578 2.53646,0.8339 3.14343,0.13229 z m -8.20314,-4.61698 c -0.69726,-0.69726 -0.0674,-2.97589 1.03634,-3.74896 0.9959,-0.69756 2.02692,-0.5432 3.02265,0.45253 1.38424,1.38425 1.58908,3.22017 0.33886,3.03718 -0.37574,-0.055 -0.64809,-0.34581 -0.77658,-0.82922 -0.38998,-1.46722 -1.29781,-1.94399 -1.98296,-1.04142 -0.19331,0.25466 -0.35527,0.76663 -0.3599,1.13771 -0.008,0.62375 -0.4279,1.30968 -0.80216,1.30968 -0.0873,0 -0.30163,-0.14287 -0.47625,-0.3175 z m 7.71084,-0.88573 c -0.23094,-0.60182 0.0712,-2.45537 0.48069,-2.94917 0.19498,-0.23512 0.74593,-0.5911 1.22434,-0.79107 0.75224,-0.31444 0.9863,-0.30833 1.73142,0.0453 1.36955,0.64989 2.41422,2.92618 1.63842,3.57004 -0.566,0.46973 -0.98979,0.21973 -1.32743,-0.78309 -0.16457,-0.48878 -0.54589,-1.05247 -0.84737,-1.25265 -0.4732,-0.31419 -0.60663,-0.30549 -0.97578,0.0637 -0.2352,0.23519 -0.42763,0.75249 -0.42763,1.14956 0,1.16531 -1.13688,1.88501 -1.49666,0.94745 z m -13.48798,4.62361 c 0.9512,-0.74821 0.95835,-2.12488 0.0159,-3.06729 -0.6007,-0.6007 -0.84103,-0.66584 -2.0337,-0.55124 -0.97868,0.094 -1.48513,0.29374 -1.83235,0.72253 -0.66841,0.82546 -0.62028,2.23458 0.0992,2.9049 0.80041,0.74569 2.79761,0.74095 3.75089,-0.009 z m -4.32994,-12.68079 c 0.29104,-0.29104 0.52916,-0.69158 0.52916,-0.89008 0,-0.36632 1.57739,-0.69742 3.32258,-0.69742 1.38924,0 1.6085,-0.1768 1.48897,-1.20066 -0.0591,-0.5065 -0.21342,-0.98637 -0.34286,-1.06637 -0.12945,-0.08 -0.23535,-0.42906 -0.23535,-0.77568 0,-0.34663 -0.10557,-0.69547 -0.23459,-0.77521 -0.12903,-0.0798 -0.31139,-0.55436 -0.40525,-1.0547 -0.0939,-0.50034 -0.28499,-0.94813 -0.42472,-0.99511 -0.13973,-0.047 -0.31732,-0.62414 -0.39464,-1.282592 l -0.14058,-1.1972 1.26291,-0.362559 c 0.6946,-0.199408 1.38197,-0.434553 1.52749,-0.522544 0.14552,-0.08799 0.85903,-0.342568 1.58558,-0.565725 0.78231,-0.240287 1.35464,-0.580488 1.40351,-0.834276 0.0964,-0.50033 -1.42571,-2.331963 -1.93784,-2.331963 -0.19202,0 -2.65023,1.979248 -5.46269,4.398329 -2.81246,2.41908 -5.38145,4.60911 -5.70887,4.86673 -0.32742,0.25761 -0.59531,0.64902 -0.59531,0.86978 0,0.41617 3.68437,4.92621 4.03489,4.93911 0.10914,0.004 0.43656,-0.23082 0.72761,-0.52186 z m 8.73125,-2.10128 c 0,-0.14427 0.75194,-0.19368 1.78593,-0.11736 0.98227,0.0725 1.9438,0.0232 2.13673,-0.10956 0.19294,-0.13275 0.42028,-0.75944 0.50521,-1.39262 0.2271,-1.6932 2.07836,-3.49134 3.98196,-3.86773 1.23589,-0.24437 1.52978,-0.20671 2.73151,0.35007 0.74064,0.34314 1.44883,0.62389 1.57376,0.62389 0.44408,0 0.0395,-1.993922 -1.07374,-5.291665 -0.79206,-2.346333 -0.88828,-2.439022 -2.0732,-1.997121 -1.00815,0.375973 -7.49308,2.45296 -9.56816,3.064481 -0.65485,0.192981 -1.30969,0.436932 -1.45521,0.542114 -0.14552,0.105182 -0.62177,0.232564 -1.05834,0.28307 -0.43656,0.05051 -1.06673,0.337971 -1.40037,0.638809 l -0.60663,0.54698 0.54048,1.260892 c 0.29727,0.69349 0.54048,1.46534 0.54048,1.71521 0,0.24988 0.0984,0.56743 0.21858,0.70567 0.18505,0.2128 0.41741,0.90487 0.99494,2.96333 0.108,0.38495 2.22607,0.46253 2.22607,0.0815 z m 10.12031,-0.95924 c 2.73588,-0.17379 2.86479,-0.25761 2.30056,-1.49594 -0.76874,-1.6872 -3.71402,-2.3774 -5.30642,-1.24352 -0.86014,0.61248 -1.5582,1.78396 -1.5582,2.61496 0,0.47674 0.12496,0.52925 0.99218,0.4169 0.54571,-0.0707 2.15305,-0.20227 3.57188,-0.2924 z m 35.49969,18.54829 c -0.79535,-0.47679 -1.1559,-0.91081 -1.37165,-1.65115 -0.37988,-1.30348 -0.13413,-3.51787 0.3904,-3.51787 0.21148,0 0.33115,-0.14883 0.26593,-0.33073 -0.20331,-0.56699 0.31554,-1.23401 1.3838,-1.779 0.91334,-0.46595 1.13707,-0.48586 2.02109,-0.1798 0.82447,0.28544 1.17372,0.28226 2.04715,-0.0187 1.5372,-0.52961 1.63745,-0.29509 1.23515,2.88954 -0.1894,1.49927 -0.35714,3.13321 -0.37276,3.63097 -0.0234,0.74457 -0.15984,0.94883 -0.7697,1.15212 -0.5877,0.1959 -0.80972,0.1535 -1.07159,-0.20463 -0.30891,-0.42247 -0.39752,-0.41569 -1.36837,0.10466 -0.57094,0.306 -1.09937,0.55524 -1.17428,0.55387 -0.0749,-0.001 -0.62174,-0.29357 -1.21517,-0.64931 z m 3.38379,-1.39871 c 0.43579,-0.50134 0.77744,-3.30772 0.50731,-4.16719 -0.18199,-0.57905 -0.83391,-0.78369 -1.75785,-0.55179 -0.724,0.18171 -1.45117,1.62044 -1.45117,2.8712 0,1.7882 1.72688,2.96926 2.70171,1.84778 z m 5.34906,1.45912 c -0.59851,-0.47079 -0.64243,-0.6748 -0.64243,-2.98406 0,-1.36708 0.11866,-2.55206 0.26458,-2.64225 0.14552,-0.0899 0.26458,-0.4425 0.26458,-0.78348 0,-0.45749 0.21836,-0.69608 0.83323,-0.91043 0.45828,-0.15975 0.93453,-0.29046 1.05834,-0.29046 0.27255,0 0.30243,1.42198 0.0355,1.68892 -0.30295,0.30294 -0.37308,3.74471 -0.0914,4.48558 0.23341,0.61391 0.33403,0.65252 1.11612,0.42822 1.39221,-0.39928 1.59714,-0.78885 1.78073,-3.38513 0.0928,-1.31241 0.25745,-2.47491 0.36586,-2.58332 0.10842,-0.10842 0.46416,-0.21789 0.79053,-0.24326 0.32637,-0.0254 0.81806,-0.14272 1.09264,-0.26078 0.45097,-0.19389 0.48125,-0.12742 0.31318,0.68745 -0.10234,0.49616 -0.26747,2.08035 -0.36696,3.52043 -0.13338,1.93078 -0.2851,2.6696 -0.57776,2.81361 -1.87531,0.92277 -1.88943,0.92533 -2.26559,0.41089 -0.32707,-0.44729 -0.41619,-0.45631 -0.9656,-0.0976 -1.00381,0.65531 -2.27909,0.71714 -3.00554,0.14571 z m 8.97242,-0.82059 c 0.15696,-1.55577 0.7467,-8.26781 0.7892,-8.98209 0.0167,-0.28084 0.29999,-0.52856 0.699,-0.61125 1.82485,-0.37819 1.68018,-0.52827 1.50604,1.56241 -0.0872,1.04626 -0.27185,3.316 -0.41045,5.04387 -0.1386,1.72786 -0.37632,3.2659 -0.52828,3.41785 -0.15195,0.15196 -0.70762,0.42457 -1.23481,0.60581 l -0.95853,0.32953 z m -25.57692,0.94897 c -0.22805,-0.38253 -2.37332,-8.93628 -2.39976,-9.56845 -0.0207,-0.49514 0.15175,-0.68753 0.76703,-0.8557 1.36443,-0.37292 1.54476,-0.14837 2.20898,2.75069 0.85841,3.7466 0.76167,3.52149 1.30227,3.03041 0.25163,-0.22858 0.80387,-1.41843 1.22721,-2.64412 0.99836,-2.8905 1.20127,-3.15334 2.35383,-3.049 l 0.92305,0.0836 -0.4716,1.05833 c -0.25939,0.58208 -0.74195,1.77271 -1.07236,2.64583 -0.33042,0.87313 -0.70126,1.70061 -0.82409,1.83886 -0.12283,0.13824 -0.22333,0.4111 -0.22333,0.60634 0,0.69441 -1.59816,3.7596 -2.10035,4.02836 -0.59639,0.31918 -1.52084,0.36012 -1.69088,0.0749 z m 31.74578,-0.28542 c -0.34391,-0.38002 -0.43788,-1.03296 -0.43788,-3.04271 0,-2.38246 -0.0365,-2.55885 -0.52917,-2.55885 -0.60455,0 -0.63597,-0.0998 -0.25527,-0.81114 0.15064,-0.28148 0.4483,-0.51178 0.66146,-0.51178 0.26533,0 0.38756,-0.28734 0.38756,-0.91104 0,-1.00842 0.73867,-1.73479 1.76417,-1.73479 0.51387,0 0.59827,0.1586 0.66873,1.25677 0.0773,1.20505 0.11604,1.26018 0.94054,1.33968 0.47294,0.0456 0.8599,0.18593 0.8599,0.31183 0,0.44402 -0.83897,1.06047 -1.44325,1.06047 -0.7213,0 -0.92914,0.569 -0.93439,2.55805 -0.005,1.99353 0.14704,2.2498 1.21771,2.04894 0.78383,-0.14704 0.89534,-0.0996 0.89534,0.38134 0,0.72094 -0.75105,1.09709 -2.19055,1.09709 -0.79457,0 -1.30676,-0.15442 -1.6049,-0.48386 z m 7.329,0.22132 c -0.31212,-0.12595 -0.87767,-0.63566 -1.25677,-1.13268 -0.55478,-0.72735 -0.68928,-1.19553 -0.68928,-2.39931 0,-1.34681 0.0952,-1.60099 0.95683,-2.55471 0.52626,-0.5825 1.09181,-1.05983 1.25677,-1.06073 0.16497,-8.9e-4 0.63984,-0.1789 1.05527,-0.39556 1.03691,-0.5408 2.54374,-0.25747 3.70016,0.69575 0.78012,0.64304 0.95958,0.99335 1.10495,2.15682 0.36356,2.90989 -1.35432,4.96837 -4.11945,4.93619 -0.79254,-0.009 -1.69636,-0.11982 -2.00848,-0.24577 z m 3.9428,-2.48537 c 0.56676,-1.53119 0.30352,-2.76863 -0.73353,-3.44813 -0.91993,-0.60276 -1.52017,-0.51933 -2.32769,0.32354 -0.58827,0.61401 -0.71096,0.98339 -0.71096,2.1404 0,1.76339 0.64778,2.43992 2.24216,2.34168 0.99885,-0.0615 1.07551,-0.12956 1.53002,-1.35749 z"
         id="path2" /><path
         style="fill:#382a00"
         d="m 230.08535,141.42305 c -0.43566,-0.43566 -0.52917,-0.88194 -0.52917,-2.52556 0,-1.76686 0.0747,-2.07108 0.64943,-2.64584 0.50448,-0.50447 0.92579,-0.64943 1.88754,-0.64943 0.68095,0 1.72816,-0.14643 2.32713,-0.32539 1.18943,-0.3554 3.15636,-2.12649 3.40113,-3.06251 0.16979,-0.64925 0.71206,-0.64677 -6.61124,-0.0303 -2.41282,0.20312 -3.1477,0.17891 -3.88203,-0.12791 -1.54104,-0.64389 -1.7974,-1.34154 -2.18223,-5.93872 -0.19066,-2.27768 -0.37768,-4.42458 -0.41559,-4.77088 -0.0629,-0.57474 -0.34571,-0.69643 -3.24393,-1.39594 -1.92901,-0.46559 -3.30479,-0.93921 -3.50573,-1.20688 -0.75501,-1.00574 -0.034,-2.45608 1.22103,-2.45608 0.32123,0 1.59596,0.25379 2.83272,0.56398 1.23677,0.31019 2.28912,0.51855 2.33855,0.46302 0.0494,-0.0555 -0.008,-1.29159 -0.12873,-2.74679 -0.38898,-4.7079 -0.33198,-5.54375 0.44068,-6.462 0.37674,-0.44772 0.80579,-0.81405 0.95345,-0.81405 0.14766,0 -0.10014,0.41983 -0.55066,0.93295 l -0.81913,0.93294 0.12851,2.70508 c 0.0707,1.48779 0.19495,3.3105 0.27614,4.05047 0.1787,1.62857 -0.28825,2.25738 -1.28156,1.72578 -0.32463,-0.17374 -0.88612,-0.35422 -1.24775,-0.40108 -0.36164,-0.0469 -0.98489,-0.21735 -1.38501,-0.37887 -0.76856,-0.31024 -2.33264,-0.1337 -2.61471,0.29515 -0.092,0.13981 -0.0874,0.55264 0.0102,0.9174 0.13939,0.5212 0.48842,0.75944 1.63019,1.11271 0.79906,0.24723 1.60216,0.39973 1.78467,0.33889 0.18252,-0.0608 0.47667,0.004 0.65368,0.14449 0.17701,0.1403 0.75635,0.3333 1.28743,0.42889 0.53109,0.0956 1.08187,0.31947 1.22396,0.49752 0.23037,0.28865 0.6921,4.09522 0.9382,7.73453 0.1158,1.7126 0.6369,2.76242 1.66967,3.36374 0.73352,0.42709 1.09808,0.4536 3.175,0.23093 1.29048,-0.13836 3.58314,-0.33372 5.0948,-0.43415 l 2.74849,-0.18259 -0.18074,0.75876 c -0.2515,1.05584 -0.94757,1.95067 -2.2146,2.84696 -0.881,0.62322 -1.4698,0.7994 -3.17165,0.94903 -1.14939,0.10106 -2.21324,0.26003 -2.36411,0.35327 -0.36539,0.22582 -0.66591,3.00354 -0.44465,4.10986 0.39952,1.99758 2.48191,1.55595 2.48191,-0.52636 0,-0.91503 0.0933,-1.05278 0.95835,-1.4142 0.5271,-0.22024 1.24147,-0.40043 1.5875,-0.40043 0.34603,0 0.62915,-0.0937 0.62915,-0.20828 0,-0.11455 0.24228,-0.22653 0.5384,-0.24883 0.29612,-0.0223 0.90057,-0.3453 1.34322,-0.71777 0.44265,-0.37246 0.91474,-0.6772 1.0491,-0.6772 0.13435,0 0.24428,-0.11293 0.24428,-0.25095 0,-0.13803 0.28861,-0.56237 0.64135,-0.94298 0.35274,-0.38062 0.7933,-1.28493 0.97903,-2.00959 0.18572,-0.72465 0.46266,-1.41438 0.61542,-1.53273 0.15276,-0.11834 1.02053,-0.3306 1.92839,-0.47168 1.52354,-0.23676 1.69163,-0.21289 2.18281,0.30995 0.29269,0.31155 0.53217,0.66189 0.53217,0.77852 0,0.17801 2.06034,4.33792 4.04244,8.16182 0.77977,1.50435 1.1847,1.61012 3.13788,0.81956 2.0542,-0.83146 2.34468,-1.05683 2.34468,-1.81921 0,-1.13846 -0.84301,-1.37167 -2.82471,-0.78146 -0.46982,0.13993 -0.70103,-0.027 -1.25677,-0.90734 -0.37456,-0.59335 -0.68102,-1.20024 -0.68102,-1.34866 0,-0.14841 -0.11907,-0.26984 -0.26459,-0.26984 -0.14552,0 -0.26458,-0.18901 -0.26458,-0.42003 0,-0.23101 -0.41672,-1.16519 -0.92604,-2.07594 -0.9334,-1.66908 -1.12017,-2.37991 -0.69444,-2.64302 0.12739,-0.0787 1.70497,-0.27088 3.50573,-0.42701 6.238,-0.54084 6.03929,-0.50242 6.91183,-1.33627 0.74082,-0.70797 0.82367,-0.96532 0.99367,-3.08661 l 0.18547,-2.31424 0.038,2.11667 c 0.0415,2.31377 -0.4156,3.49524 -1.59695,4.12748 -0.33379,0.17864 -2.688,0.49017 -5.23156,0.69228 -2.54357,0.20211 -4.6828,0.4256 -4.75385,0.49665 -0.071,0.0711 0.69389,1.73915 1.69986,3.70689 1.61624,3.16147 1.89197,3.55688 2.37002,3.39873 0.29754,-0.0984 0.97717,-0.23652 1.51029,-0.30685 0.83329,-0.10992 1.03529,-0.0272 1.43947,0.58969 0.72481,1.1062 0.13693,1.86011 -2.21665,2.84271 -1.60789,0.67127 -2.03146,0.75476 -2.5743,0.50743 -0.48152,-0.2194 -1.3096,-1.61682 -3.19835,-5.39741 -1.40173,-2.80574 -2.57254,-5.12872 -2.60179,-5.16216 -0.0292,-0.0334 -0.84934,0.0135 -1.82242,0.1044 -1.37764,0.12865 -1.7698,0.25923 -1.77181,0.58998 -0.004,0.73655 -1.21486,3.06434 -2.14302,4.12146 -1.00695,1.14685 -3.46807,2.41784 -5.17854,2.67434 -1.13998,0.17095 -1.14252,0.17383 -1.14252,1.29091 0,1.8175 -1.47638,2.63563 -2.64584,1.46617 z m 45.79989,-17.66093 c -2.3325,-8.96975 -2.52548,-9.88436 -2.13736,-10.1298 0.21483,-0.13585 0.62872,-0.23695 0.91976,-0.22467 0.42658,0.018 0.40093,0.0591 -0.13229,0.21227 -0.87173,0.25035 -0.83297,0.65317 0.58764,6.1073 1.00822,3.87087 1.20273,4.375 1.71628,4.44838 0.31856,0.0455 0.82299,-0.0477 1.12094,-0.20717 0.52555,-0.28126 2.13139,-3.32885 2.13139,-4.04497 0,-0.19524 0.1005,-0.4681 0.22333,-0.60634 0.12283,-0.13825 0.49367,-0.96573 0.82409,-1.83886 0.33041,-0.87312 0.81297,-2.06375 1.07236,-2.64583 l 0.4716,-1.05833 -0.92305,-0.0836 c -1.14433,-0.10359 -1.33352,0.13752 -2.31418,2.94935 -0.41458,1.18872 -0.87311,2.28036 -1.01895,2.42588 -0.30496,0.3043 -0.33611,0.41122 0.86506,-2.96941 0.53375,-1.50221 1.03209,-2.48497 1.29641,-2.55659 1.34997,-0.36577 2.41375,-0.4293 2.41375,-0.14415 0,0.26913 -3.20284,8.38142 -3.99889,10.12856 -0.20818,0.45691 -0.64292,0.741 -1.44175,0.94215 -0.62903,0.15839 -1.20544,0.28798 -1.28091,0.28798 -0.0755,0 -0.25333,-0.44648 -0.39523,-0.99218 z m 8.57199,0.6211 c -2.63428,-1.16279 -2.98388,-5.04167 -0.66354,-7.36201 0.54899,-0.54899 1.22052,-0.99289 1.49231,-0.98646 0.32708,0.008 0.16145,0.18737 -0.48987,0.53129 -1.03255,0.54523 -1.53907,1.21537 -1.33943,1.77212 0.0652,0.1819 -0.0545,0.33073 -0.26593,0.33073 -0.52529,0 -0.77006,2.21516 -0.38918,3.52197 0.22306,0.76529 0.57006,1.17026 1.43922,1.67962 l 1.1453,0.67119 1.10962,-0.57837 c 1.03235,-0.53809 1.13243,-0.54719 1.43702,-0.13063 0.25896,0.35414 0.48236,0.39609 1.06868,0.20065 0.60986,-0.20329 0.74632,-0.40755 0.7697,-1.15212 0.0156,-0.49776 0.18336,-2.1317 0.37276,-3.63097 0.21427,-1.6962 0.25065,-2.81966 0.0963,-2.97401 -0.1529,-0.15289 -0.57383,-0.15462 -1.09728,-0.004 -0.46707,0.13395 -0.84922,0.14327 -0.84922,0.0207 0,-0.26407 1.99611,-0.63969 2.32365,-0.43725 0.12453,0.077 0.0632,1.5452 -0.13631,3.26276 -0.1995,1.71756 -0.31556,3.46438 -0.25792,3.88183 0.0926,0.67082 -0.021,0.81569 -0.97845,1.24713 -1.05614,0.47591 -1.089,0.47569 -1.31214,-0.009 -0.2236,-0.48568 -0.24799,-0.48548 -1.05833,0.009 -0.96898,0.59085 -1.34045,0.61186 -2.41696,0.13667 z m 8.59896,0.0287 c -1.20597,-0.60999 -1.39354,-1.44815 -1.06332,-4.75131 0.16282,-1.62868 0.42556,-3.04129 0.58387,-3.13913 0.38482,-0.23783 2.37013,-0.54803 2.52382,-0.39434 0.14262,0.14262 -0.47456,5.98132 -0.63226,5.98132 -0.18683,0 0.0506,-3.93211 0.2494,-4.13095 0.26764,-0.26764 0.23858,-1.68988 -0.0345,-1.68988 -0.12381,0 -0.60006,0.13071 -1.05834,0.29046 -0.61487,0.21435 -0.83323,0.45294 -0.83323,0.91043 0,0.34098 -0.11906,0.69354 -0.26458,0.78348 -0.14565,0.09 -0.26458,1.2679 -0.26458,2.62044 0,2.14119 0.0697,2.52003 0.5426,2.94798 0.65121,0.58933 2.11646,0.5616 3.062,-0.0579 0.35489,-0.23253 0.71879,-0.34924 0.80867,-0.25935 0.18906,0.18906 -1.96973,1.21861 -2.56119,1.22145 -0.21828,0.001 -0.69453,-0.14864 -1.05833,-0.33266 z m 3.70416,-0.0862 c 0,-0.21992 0.12904,-0.31668 0.28982,-0.21731 0.25726,0.15899 0.68975,0.0206 2.09143,-0.66908 0.29266,-0.14401 0.44438,-0.88283 0.57776,-2.81361 0.0995,-1.44008 0.26462,-3.02427 0.36696,-3.52043 0.16807,-0.81487 0.13779,-0.88134 -0.31318,-0.68745 -0.27458,0.11806 -0.77738,0.2359 -1.11732,0.26186 -0.85603,0.0654 -1.09296,0.559 -1.09767,2.28681 -0.006,2.1253 -0.26066,3.12577 -0.9006,3.53513 -0.74311,0.47536 -1.80747,0.6057 -1.93361,0.2368 -0.0624,-0.18253 0.13552,-0.25079 0.51619,-0.17802 0.35847,0.0685 0.86327,-0.0847 1.20361,-0.36541 0.50023,-0.41255 0.61117,-0.84419 0.75648,-2.94321 0.18883,-2.7275 0.21931,-2.77079 2.1799,-3.09579 l 1.16456,-0.19304 -0.15806,1.1545 c -0.0869,0.63498 -0.24116,2.25652 -0.34274,3.60341 -0.10157,1.34689 -0.31637,2.61207 -0.47733,2.81149 -0.16096,0.19943 -0.8582,0.54872 -1.54943,0.77619 -1.10886,0.36492 -1.25677,0.36694 -1.25677,0.0172 z m 4.7625,-0.10007 c 0,-2.22631 0.87154,-10.73301 1.11505,-10.88351 0.34107,-0.21079 2.59357,-0.57786 2.72703,-0.4444 0.0631,0.0631 -0.64816,8.34795 -0.92255,10.74556 -0.011,0.0958 -1.49257,0.71082 -2.32421,0.96482 -0.48811,0.14907 -0.59532,0.0802 -0.59532,-0.38247 z m 2.40995,-0.71716 c 0.15196,-0.15195 0.38968,-1.68999 0.52828,-3.41785 0.1386,-1.72787 0.3233,-3.99761 0.41045,-5.04387 0.17414,-2.09068 0.31881,-1.9406 -1.50604,-1.56241 -0.39901,0.0827 -0.6823,0.33041 -0.699,0.61125 -0.0425,0.71428 -0.63224,7.42632 -0.7892,8.98209 l -0.13783,1.36613 0.95853,-0.32953 c 0.52719,-0.18124 1.08286,-0.45385 1.23481,-0.60581 z m 4.41795,0.94322 c -1.00671,-0.36835 -1.33951,-1.57332 -1.11594,-4.04051 l 0.18187,-2.00693 h -0.69796 c -0.38387,0 -0.69795,-0.0709 -0.69795,-0.15761 0,-0.39863 0.94252,-1.69447 1.23246,-1.69447 0.19184,0 0.35789,-0.45345 0.40597,-1.1086 0.08,-1.0902 0.10332,-1.11427 1.40428,-1.45011 0.7276,-0.18782 1.39224,-0.3438 1.47697,-0.3466 0.0847,-0.003 0.0998,0.64974 0.0334,1.4501 l -0.12068,1.45521 h 1.0911 c 1.23474,0 1.23848,0.006 0.68742,1.07147 -0.30762,0.59488 -0.58806,0.78061 -1.17863,0.78061 -0.66594,0 -0.79782,0.12182 -0.9374,0.86586 -0.0893,0.47621 -0.1245,1.39895 -0.0781,2.05052 l 0.0843,1.18467 0.95926,-0.0831 c 0.844,-0.0731 0.98007,-1.1e-4 1.13257,0.60748 0.23935,0.95364 0.0811,1.1111 -1.44577,1.43856 -1.5304,0.32821 -1.47379,0.32859 -2.41712,-0.0166 z m 2.97908,-0.5005 c 0.28148,-0.15064 0.51177,-0.52107 0.51177,-0.82319 0,-0.48089 -0.11151,-0.52838 -0.89534,-0.38134 -1.07067,0.20086 -1.22298,-0.0554 -1.21771,-2.04894 0.005,-1.98905 0.21309,-2.55805 0.93439,-2.55805 0.60428,0 1.44325,-0.61645 1.44325,-1.06047 0,-0.1259 -0.38696,-0.26623 -0.8599,-0.31183 -0.8245,-0.0795 -0.86321,-0.13463 -0.94054,-1.33968 -0.0705,-1.09817 -0.15486,-1.25677 -0.66873,-1.25677 -1.0255,0 -1.76417,0.72637 -1.76417,1.73479 0,0.6237 -0.12223,0.91104 -0.38756,0.91104 -0.21316,0 -0.51082,0.2303 -0.66146,0.51178 -0.3807,0.71133 -0.34928,0.81114 0.25527,0.81114 0.49269,0 0.52917,0.17639 0.52917,2.55885 0,3.08092 0.25814,3.52657 2.04278,3.52657 0.64185,0 1.39731,-0.12325 1.67878,-0.2739 z m 3.95136,0.22477 c -1.56094,-0.80278 -2.52005,-2.57963 -2.25125,-4.17065 0.24493,-1.44977 1.13724,-2.68871 2.39173,-3.32085 0.57758,-0.29104 1.08983,-0.61846 1.13834,-0.7276 0.0485,-0.10914 0.40569,-0.19778 0.79375,-0.19696 1.33344,0.003 2.79874,0.58358 3.6697,1.45454 0.80096,0.80096 0.87231,1.00784 0.87231,2.52917 0,2.89522 -1.42928,4.53157 -4.27769,4.89745 -0.88252,0.11335 -1.42023,0.006 -2.33689,-0.4651 z m 4.53001,-0.63457 c 1.32651,-0.91927 1.92252,-2.42325 1.69188,-4.26926 -0.14537,-1.16347 -0.32483,-1.51378 -1.10495,-2.15682 -1.15642,-0.95322 -2.66325,-1.23655 -3.70016,-0.69575 -0.41543,0.21666 -0.8903,0.39467 -1.05527,0.39556 -0.16496,9e-4 -0.73051,0.47823 -1.25677,1.06073 -0.86163,0.95372 -0.95683,1.2079 -0.95683,2.55471 0,1.20378 0.1345,1.67196 0.68928,2.39931 0.84995,1.11434 1.42482,1.35703 3.26525,1.37845 1.13615,0.0132 1.6497,-0.12787 2.42757,-0.66693 z m -3.67012,-1.15345 c -0.47962,-0.40012 -0.59531,-0.76838 -0.59531,-1.89495 0,-1.15701 0.12269,-1.52639 0.71096,-2.1404 0.80752,-0.84287 1.40776,-0.9263 2.32769,-0.32354 1.03723,0.67962 1.30044,1.91727 0.73285,3.44595 -0.32361,0.87159 -0.6485,1.31612 -1.00085,1.36942 -0.46429,0.0702 -0.4755,0.0414 -0.10189,-0.2624 1.40706,-1.14396 1.38477,-3.68897 -0.039,-4.45094 -0.79354,-0.42469 -1.57295,-0.0524 -1.99248,0.95163 -0.72153,1.72687 -0.25598,3.38722 1.01867,3.63304 0.51039,0.0984 0.51928,0.11815 0.0638,0.14159 -0.29104,0.015 -0.79706,-0.19626 -1.12448,-0.4694 z m -56.79895,-1.46961 c -0.10146,-1.38217 -0.12025,-2.61695 -0.0418,-2.74395 0.0785,-0.127 0.50672,-0.30372 0.95162,-0.3927 1.67581,-0.33516 4.52722,-1.30072 4.87848,-1.65198 0.52499,-0.52499 0.13528,-1.80314 -0.58191,-1.90851 -0.30715,-0.0451 -1.1921,0.11468 -1.96656,0.35514 -2.11782,0.65754 -3.21946,0.90193 -2.96182,0.65706 0.33821,-0.32144 3.87869,-1.32702 4.67219,-1.32702 0.84939,0 1.51173,0.63757 1.51173,1.45521 0,0.89206 -0.581,1.35688 -2.31528,1.85231 -0.83665,0.239 -2.05696,0.58806 -2.71181,0.77569 l -1.19062,0.34114 0.0971,2.55032 c 0.0534,1.40268 0.0399,2.55033 -0.0299,2.55033 -0.0698,0 -0.20998,-1.13087 -0.31144,-2.51304 z m 26.06034,1.28673 c -0.98135,-1.24759 -0.41036,-4.1707 0.8722,-4.46509 0.90324,-0.20731 1.75443,-0.0457 1.75443,0.33305 0,0.26393 -0.12572,0.2826 -0.51177,0.076 -1.32882,-0.71117 -2.24132,0.3027 -2.19273,2.43629 0.0361,1.5845 0.49966,2.19822 1.47542,1.95332 0.56179,-0.141 0.69465,-0.36695 0.83696,-1.42337 0.28645,-2.12643 0.63341,-2.76115 0.4695,-0.85888 -0.083,0.96326 -0.32524,1.92347 -0.55067,2.18281 -0.58382,0.67165 -1.52101,0.56975 -2.15334,-0.23412 z m -41.07923,-1.86485 c 0.191,-0.0764 0.4192,-0.067 0.50712,0.0209 0.0879,0.0879 -0.0684,0.15045 -0.34727,0.13896 -0.30822,-0.0127 -0.37092,-0.0754 -0.15985,-0.15985 z m 33.3157,-0.87759 c -0.0732,-0.21828 -0.41398,-1.5875 -0.75737,-3.04271 -0.34338,-1.45521 -0.8034,-2.79942 -1.02226,-2.98714 -0.34581,-0.29662 -0.32978,-0.33101 0.12243,-0.26266 0.43117,0.0652 0.64453,0.59978 1.24493,3.11943 0.39852,1.67243 0.68424,3.15985 0.63494,3.30537 -0.0493,0.14552 -0.14951,0.086 -0.22267,-0.13229 z m 9.33183,-3.04271 c -0.86241,-0.33211 -0.87827,-0.358 -0.23084,-0.37675 0.38237,-0.0111 0.84343,0.15847 1.02459,0.37675 0.38343,0.46201 0.40597,0.46201 -0.79375,0 z m -28.1427,-2.84427 c -0.43813,-3.85599 -0.48733,-4.81943 -0.23303,-4.56406 0.14491,0.14552 0.3417,1.5445 0.43732,3.10885 0.18249,2.98557 0.0648,3.8237 -0.20429,1.45521 z m -31.85157,-6.97617 c -1.05503,-1.24587 -1.91823,-2.44584 -1.91823,-2.6666 0,-0.22076 0.26789,-0.61217 0.59531,-0.86978 0.32742,-0.25762 2.89641,-2.44765 5.70887,-4.86673 2.81246,-2.419081 5.27067,-4.398329 5.46269,-4.398329 0.35355,0 1.99982,1.71124 1.98153,2.059728 -0.005,0.104077 -0.41865,-0.287019 -0.91818,-0.869103 -0.68829,-0.802039 -0.99886,-0.994259 -1.28245,-0.79375 -0.20582,0.145521 -2.18765,1.812396 -4.40407,3.704167 -2.21642,1.891775 -4.64117,3.960507 -5.38834,4.597187 -0.74717,0.63668 -1.35849,1.30946 -1.35849,1.49507 0,0.18561 0.82625,1.3052 1.83611,2.48799 l 1.8361,2.15052 0.60178,-0.73517 c 0.33097,-0.40435 0.60605,-0.58635 0.61129,-0.40445 0.0103,0.35849 -0.92408,1.39365 -1.24726,1.38176 -0.10914,-0.004 -1.06164,-1.02665 -2.11666,-2.27251 z m 31.27586,0.74458 c -0.26391,-1.19558 -1.58217,-2.16893 -2.9375,-2.16893 -1.10744,0 -1.69325,-0.368 -1.66369,-1.04511 0.0118,-0.27063 0.11555,-0.20764 0.30502,0.18521 0.23753,0.49252 0.50239,0.59531 1.53391,0.59531 0.83901,0 1.46311,0.17015 1.90813,0.5202 0.74018,0.58223 1.38577,1.91755 1.1811,2.44292 -0.0738,0.1893 -0.22088,-0.049 -0.32697,-0.5296 z m -33.83163,-1.81276 c -0.67733,-0.82275 -1.19178,-1.62642 -1.14322,-1.78593 0.10346,-0.33984 13.41828,-11.799412 13.70968,-11.799412 0.19088,0 1.21625,1.050466 2.7892,2.857472 l 0.76,0.873097 1.15775,-0.410076 c 1.34436,-0.476177 1.43598,-0.489294 1.24361,-0.178036 -0.0789,0.127623 -0.67984,0.367117 -1.33548,0.53221 -1.34453,0.338556 -1.30872,0.360077 -3.14827,-1.891866 -0.56323,-0.689499 -1.1371,-1.253634 -1.27525,-1.253634 -0.47408,0 -2.46816,1.550141 -6.29965,4.897151 -2.11005,1.843242 -4.03824,3.549274 -4.28485,3.791164 -0.24662,0.2419 -0.99076,0.85598 -1.65365,1.36462 -1.21588,0.93297 -1.5392,1.74178 -0.80838,2.02222 0.21829,0.0838 0.39688,0.26382 0.39688,0.40012 0,0.1363 0.29766,0.56883 0.66146,0.96117 0.5945,0.64115 0.83334,1.11564 0.56157,1.11564 -0.0549,0 -0.65407,-0.67316 -1.3314,-1.49591 z m 6.72295,1.25084 c 0.21828,-0.11977 1.2788,-0.27766 2.3567,-0.35087 1.0779,-0.0732 1.79228,-0.0444 1.5875,0.0639 -0.20478,0.10835 -1.26529,0.26625 -2.3567,0.35087 -1.0914,0.0846 -1.80578,0.0559 -1.5875,-0.0639 z m 5.18227,-0.61483 c -0.57753,-2.05846 -0.80989,-2.75053 -0.99494,-2.96333 -0.12022,-0.13824 -0.21858,-0.45579 -0.21858,-0.70567 0,-0.24987 -0.24321,-1.02172 -0.54048,-1.71521 l -0.54048,-1.260892 0.60663,-0.54698 c 0.33364,-0.300838 0.96381,-0.588302 1.40037,-0.638809 0.43657,-0.05051 0.91282,-0.177888 1.05834,-0.28307 0.14552,-0.105182 0.80036,-0.349133 1.45521,-0.542114 2.07508,-0.611521 8.56001,-2.688508 9.56816,-3.064481 1.20509,-0.449425 1.26177,-0.387021 2.17419,2.393996 0.38195,1.164166 0.82414,2.512538 0.98263,2.996368 0.1585,0.483842 0.22707,0.940812 0.15238,1.015502 -0.0747,0.0747 -0.57064,-1.214152 -1.10212,-2.864081 -0.53148,-1.64993 -1.06243,-3.098792 -1.17988,-3.219693 -0.27568,-0.283783 -14.56516,4.330252 -14.56089,4.701682 0.002,0.15435 0.46806,1.709392 1.0362,3.455642 l 1.03297,3.175 0.94818,-0.0582 c 0.5215,-0.032 0.94818,0.0573 0.94818,0.19844 0,0.38606 -2.11673,0.31564 -2.22607,-0.0741 z m 3.41669,-0.0662 c 0.14552,-0.0498 0.81742,-0.16488 1.49311,-0.25567 1.2117,-0.16282 1.23087,-0.18074 1.40006,-1.30895 0.31454,-2.09749 2.68074,-4.1634 4.68744,-4.09257 0.77916,0.0275 0.72834,0.064 -0.42115,0.30242 -1.82806,0.37918 -3.70095,2.23333 -3.92221,3.88299 -0.18705,1.39453 -0.47184,1.60094 -2.17892,1.57921 -0.7276,-0.009 -1.20385,-0.0576 -1.05833,-0.10743 z m -5.5385,-2.44794 c -0.4268,-1.341 -0.70237,-2.51181 -0.61237,-2.6018 0.09,-0.09 0.24433,0.26657 0.34297,0.79237 0.0986,0.5258 0.28491,1.02124 0.41394,1.10099 0.12902,0.0797 0.23459,0.4118 0.23459,0.73791 0,0.32611 0.12914,0.72207 0.28698,0.87991 0.15784,0.15784 0.24714,0.56639 0.19844,0.90789 -0.058,0.4069 -0.356,-0.21943 -0.86455,-1.81727 z m 17.75867,-4.580762 c -0.82809,-2.537088 -1.50537,-4.73896 -1.50508,-4.893048 3e-4,-0.154088 -0.14946,-0.485286 -0.33278,-0.735997 -0.33806,-0.462329 -0.93911,-0.383718 -2.70939,0.35436 -0.29104,0.121343 -1.09472,0.375647 -1.78594,0.565119 -0.69122,0.189472 -1.25677,0.437564 -1.25677,0.551315 0,0.113752 -0.23813,0.206821 -0.52917,0.206821 -1.28007,0 -0.28958,-0.520303 2.78313,-1.461979 2.02334,-0.620081 3.40334,-0.919233 3.54626,-0.768748 0.32362,0.340744 3.4926,10.203319 3.38357,10.530409 -0.0485,0.14555 -0.76574,-1.81116 -1.59383,-4.348252 z m -2.43058,1.984232 c -0.78009,-0.37573 -1.10579,-0.63803 -0.79375,-0.63923 0.29104,-0.001 1.00541,0.29128 1.5875,0.64979 1.33995,0.8253 0.93033,0.81985 -0.79375,-0.0106 z m -16.68862,-1.819602 c -0.0892,-0.35553 -0.0891,-0.764731 2.4e-4,-0.909333 0.0894,-0.144601 1.26543,-0.621462 2.61346,-1.059692 1.34803,-0.43823 2.67487,-0.882702 2.94853,-0.987715 0.31563,-0.121116 0.43581,-0.09102 0.32869,0.08232 -0.0929,0.150289 -0.7375,0.427122 -1.43247,0.615185 -0.69497,0.188063 -1.38265,0.425214 -1.52817,0.527001 -0.14552,0.101788 -0.83927,0.350131 -1.54167,0.551874 -1.19371,0.342854 -1.26756,0.41447 -1.1311,1.09679 0.18044,0.902172 -0.0345,0.971942 -0.25751,0.0836 z"
         id="path1" /></g></g></svg>
